<svg id="Layer_1" data-name="Layer 1" xmlns="http://www.w3.org/2000/svg" viewBox="0 0 1080 1080"><defs><style>.cls-1{fill:#9d3020;}.cls-2{fill:#96dcff;}.cls-3{fill:#fff;}</style></defs><polygon class="cls-1" points="840.49 907.05 239.51 897.05 229.51 154.83 850.49 144.83 840.49 907.05"/><polygon class="cls-2" points="514.8 497.85 510.9 185.69 263.92 188.38 268.57 500.93 514.8 497.85"/><polygon class="cls-2" points="553.61 497.36 808.73 494.17 814.15 182.38 549.7 185.27 553.61 497.36"/><polygon class="cls-2" points="515.29 536.65 269.14 539.73 273.92 860.32 519.41 865.9 515.29 536.65"/><polygon class="cls-2" points="554.09 536.17 558.23 866.78 802.15 872.32 808.05 532.99 554.09 536.17"/><path class="cls-3" d="M394.28,187s51.47,156.11-106.39,314H268.57l-4.66-312.55Z"/><polygon class="cls-3" points="269.14 539.73 273.92 860.32 368.08 862.46 294.53 540 269.14 539.73"/><path class="cls-3" d="M681.93,183.82s-56.49,244.8,31.33,311.54l95.47-1.19,5.42-311.79Z"/><polygon class="cls-3" points="739.1 533.85 701.01 870.02 802.15 872.32 808.05 532.99 739.1 533.85"/></svg>