<svg id="Layer_1" data-name="Layer 1" xmlns="http://www.w3.org/2000/svg" viewBox="0 0 1080 1080"><defs><style>.cls-1{fill:#9d3020;}.cls-2{fill:#96dcff;}.cls-3{fill:#8acaeb;}</style></defs><polygon class="cls-1" points="888.6 938.06 317.32 957.4 283.51 129.94 854.78 110.61 888.6 938.06"/><polygon class="cls-2" points="873.29 952.59 302.69 984.4 247.04 157.93 817.64 126.11 873.29 952.59"/><polygon class="cls-3" points="826.9 263.62 256.3 295.44 251.9 230.11 822.5 198.29 826.9 263.62"/><polygon class="cls-3" points="716.69 762.69 432.64 778.53 431.14 756.33 715.19 740.49 716.69 762.69"/><polygon class="cls-3" points="677.2 795.37 476.22 806.58 474.73 784.38 675.7 773.18 677.2 795.37"/><path class="cls-3" d="M598.59,319.45l4.51,66.93c1.83,27.19-20.91,50.59-50.79,52.26s-55.59-19-57.42-46.22l-4.51-66.94Z"/></svg>