<svg id="Layer_1" data-name="Layer 1" xmlns="http://www.w3.org/2000/svg" viewBox="0 0 1080 1080"><defs><style>.cls-1{fill:#9d3020;}.cls-2{fill:#96dcff;}.cls-3{fill:#8acaeb;}.cls-4{fill:#f04b32;}</style></defs><path class="cls-1" d="M809.43,940.23a3931.25,3931.25,0,0,0-591.82.84Q204.74,540,193.88,138.75a4250.49,4250.49,0,0,1,639.92,1.54Q820.62,540.18,809.43,940.23Z"/><path class="cls-2" d="M842.61,925.75a3930.13,3930.13,0,0,0-591.54-18q-.09-401.29,1.84-802.67A4250.23,4250.23,0,0,1,892.45,127Q866.53,526.25,842.61,925.75Z"/><path class="cls-3" d="M753.78,872.15q-82.35-6.82-164.89-10.21l.54-15.83q82.65,3.39,165.16,10.23Z"/><path class="cls-3" d="M800.24,847.08q-105-9.93-210.36-14.26.27-7.91.55-15.83,105.47,4.34,210.69,14.29Q800.67,839.17,800.24,847.08Z"/><path class="cls-4" d="M764.88,395c-6.76,112.52-166.87,223.71-209,223.47-42-2.37-194.75-123.71-194-236.73.69-56.66,45.32-89.6,93.84-89.23,77.7.7,108.2,80.06,108.14,79.92-.07.13,35.64-77,113.26-72.53C725.59,302.78,767.93,338.55,764.88,395Z"/><path class="cls-3" d="M406.69,817.65c-.41,24.37-19.77,44.19-43.23,44.58S321.09,843.4,321.25,819s19.52-44.66,43.24-45S407.09,793.29,406.69,817.65Z"/></svg>