<svg id="Layer_1" data-name="Layer 1" xmlns="http://www.w3.org/2000/svg" viewBox="0 0 1080 1080"><defs><style>.cls-1{fill:#9d3020;}.cls-2{fill:#96dcff;}.cls-3{fill:#f04b32;}.cls-4{fill:#8acaeb;}</style></defs><path class="cls-1" d="M1006.74,487.68a231,231,0,0,0-16.89-157.33h0A230.83,230.83,0,0,0,874.06,220.16L703.84,146.72,51.47,453.09l232.75,522L959.32,679.2ZM892.43,426.85c-27.66-3.73-46.92-30.21-43-59.13s29.49-49.35,57.15-45.62,46.91,30.21,43,59.13S920.08,430.58,892.43,426.85Z"/><polygon class="cls-2" points="107.22 482.14 308.21 922.04 915.42 653.1 701.96 200.88 107.22 482.14"/><polygon class="cls-3" points="944.14 360.75 938.51 347.39 991.56 322.72 998.96 340.28 944.14 360.75"/><polygon class="cls-3" points="923.83 342.07 912.74 323.03 972.91 274.68 987.49 299.71 923.83 342.07"/><polygon class="cls-4" points="207.46 701.53 308.21 922.04 915.42 653.1 819.89 450.73 207.46 701.53"/></svg>