<svg id="Layer_1" data-name="Layer 1" xmlns="http://www.w3.org/2000/svg" viewBox="0 0 1080 1080"><defs><style>.cls-1{fill:#9d3020;}.cls-2{fill:#96dcff;}.cls-3{fill:#8acaeb;}.cls-4{fill:#f04b32;}</style></defs><polygon class="cls-1" points="127.55 178.31 163.09 539.95 127.55 929.36 364.44 897.06 571.72 935.82 741.31 893.83 939.98 926.13 901.22 539.95 931.9 160.76 733.24 178.31 546.1 146.01 364.44 196.08 127.55 178.31"/><path class="cls-2" d="M865.43,540l31-348.56-97.68,12a110.89,110.89,0,0,1,20.43,91.06c-11,50.81-56.89,99.34-95.32,132.3l6.76,150.09L569.77,557l-24.3-376.65-172.3,45.76-206.3-12.26,32.94,330.89L166.87,895.55l206.3-28.08,196.6,28.08,160.85-33.19,180.76,33.19Z"/><path class="cls-3" d="M730.62,576.91l-6.76-150.09a546.34,546.34,0,0,1-56.12,42.42S584.09,330,601.89,247.6a110.77,110.77,0,0,1,26-50.89l-82.42-16.36L569.77,557Z"/><ellipse class="cls-1" cx="668.19" cy="468.53" rx="26" ry="50.76" transform="translate(142.4 1092.67) rotate(-84.93)"/><polygon class="cls-3" points="373.17 226.11 166.87 213.85 199.81 544.75 408.92 557 373.17 226.11"/><polygon class="cls-3" points="408.92 557 373.17 867.47 569.77 895.55 569.77 557 408.92 557"/><polygon class="cls-3" points="730.62 576.91 865.43 540 911.38 895.55 730.62 862.36 730.62 576.91"/><path class="cls-4" d="M798.75,203.46A111.12,111.12,0,0,0,601.89,247.6c-17.8,82.44,65.85,221.64,65.85,221.64a546.34,546.34,0,0,0,56.12-42.42c38.43-33,84.35-81.49,95.32-132.3A110.89,110.89,0,0,0,798.75,203.46Zm-42.84,80.43a49.7,49.7,0,1,1-41.16-59.63c1,.16,2,.34,3.07.56A49.69,49.69,0,0,1,755.91,283.89Z"/></svg>