<svg width="97" height="60" viewBox="0 0 97 60" fill="none" xmlns="http://www.w3.org/2000/svg">
<path d="M0.537486 9.85913L1.74496 6.8826C1.75915 6.84844 1.78067 6.8178 1.80801 6.79284C1.83535 6.76788 1.86784 6.74921 1.90318 6.73815C1.93853 6.72708 1.97588 6.72389 2.01259 6.7288C2.04931 6.73371 2.0845 6.7466 2.11568 6.76656L6.13555 9.31953C6.18529 9.35127 6.22231 9.39943 6.24014 9.45562C6.25798 9.51182 6.25551 9.57248 6.23316 9.62704L5.67533 11.0045C5.65299 11.0589 5.61233 11.1039 5.56036 11.1316C5.5084 11.1594 5.44837 11.1682 5.39061 11.1565L0.721106 10.1991C0.684967 10.1917 0.650892 10.1765 0.621284 10.1546C0.591677 10.1326 0.567257 10.1044 0.549748 10.072C0.532239 10.0395 0.522066 10.0037 0.519947 9.96691C0.517829 9.93013 0.523816 9.89334 0.537486 9.85913Z" fill="black"/>
<path d="M8.26445 1.68435L11.1884 0.259327C11.2205 0.243936 11.2555 0.235468 11.291 0.234474C11.3266 0.23348 11.362 0.239982 11.3949 0.253558C11.4278 0.267134 11.4575 0.287479 11.482 0.313266C11.5064 0.339053 11.5252 0.369704 11.5371 0.403222L13.6754 6.47232C13.6962 6.53048 13.6948 6.59426 13.6714 6.65144C13.6481 6.70862 13.6044 6.75517 13.5487 6.78216L11.9682 7.55385C11.9124 7.58104 11.8486 7.58683 11.7889 7.57015C11.7291 7.55347 11.6775 7.51546 11.644 7.46334L8.15753 2.05105C8.1379 2.02061 8.12504 1.98631 8.11982 1.95048C8.11461 1.91465 8.11715 1.87812 8.12729 1.84336C8.13742 1.8086 8.15491 1.77641 8.17858 1.74898C8.20224 1.72155 8.23152 1.69951 8.26445 1.68435Z" fill="black"/>
<path d="M0.894639 2.73885L3.21893 0.417967C3.24332 0.393584 3.27243 0.374433 3.3045 0.361688C3.33656 0.348943 3.37089 0.342874 3.40539 0.343852C3.43988 0.34483 3.47382 0.352835 3.5051 0.367376C3.53639 0.381916 3.56437 0.402686 3.58733 0.428411L11.0588 8.85668C11.1023 8.90488 11.1255 8.96799 11.1235 9.03285C11.1216 9.09771 11.0946 9.15931 11.0483 9.20481L9.69209 10.559C9.64637 10.605 9.58472 10.6318 9.51985 10.6337C9.45498 10.6357 9.39184 10.6127 9.34344 10.5695L0.905098 3.1067C0.879335 3.08378 0.858535 3.05584 0.843973 3.0246C0.829411 2.99336 0.821394 2.95947 0.820415 2.92503C0.819435 2.89058 0.825514 2.8563 0.838278 2.82429C0.851041 2.79227 0.870221 2.7632 0.894639 2.73885Z" fill="black"/>
<path d="M86.5435 45.6201L86.6598 48.8298C86.6595 48.8683 86.6508 48.9062 86.6344 48.941C86.618 48.9758 86.5942 49.0066 86.5647 49.0313C86.5352 49.056 86.5007 49.0741 86.4635 49.0841C86.4264 49.0942 86.3874 49.0962 86.3495 49.0898L81.2988 48.4098C81.2378 48.4038 81.1809 48.3764 81.1383 48.3324C81.0957 48.2884 81.0702 48.2306 81.0664 48.1696L81.0117 46.6854C81.0111 46.6244 81.0321 46.5652 81.071 46.5182C81.1099 46.4713 81.1643 46.4396 81.2244 46.4289L86.2077 45.3845C86.2455 45.3741 86.2851 45.3722 86.3238 45.3789C86.3624 45.3856 86.3991 45.4008 86.4312 45.4233C86.4633 45.4458 86.49 45.4751 86.5094 45.5091C86.5288 45.5431 86.5405 45.581 86.5435 45.6201Z" fill="black"/>
<path d="M84.7281 57.5763L82.5514 59.8067C82.5275 59.8311 82.4987 59.8502 82.4669 59.8627C82.4351 59.8752 82.4009 59.8808 82.3668 59.8792C82.3326 59.8775 82.2992 59.8687 82.2687 59.8532C82.2382 59.8377 82.2114 59.8159 82.19 59.7893L78.3003 55.0048C78.263 54.9589 78.2438 54.901 78.2463 54.842C78.2489 54.783 78.2731 54.7269 78.3142 54.6845L79.4903 53.4788C79.5318 53.4365 79.5874 53.4109 79.6465 53.4068C79.7056 53.4028 79.7642 53.4205 79.8111 53.4568L84.7026 57.2154C84.7296 57.2363 84.7519 57.2627 84.7681 57.2928C84.7842 57.3229 84.7938 57.3561 84.7962 57.3902C84.7987 57.4242 84.7938 57.4584 84.7821 57.4905C84.7704 57.5226 84.752 57.5518 84.7281 57.5763Z" fill="black"/>
<path d="M90.7139 53.8209L89.3089 56.7881C89.2947 56.8196 89.2742 56.8477 89.2486 56.8709C89.223 56.894 89.1928 56.9116 89.1601 56.9225C89.1273 56.9334 89.0926 56.9374 89.0583 56.9342C89.0239 56.9311 88.9905 56.9208 88.9603 56.9042L79.3145 51.594C79.2592 51.5624 79.2179 51.5111 79.1989 51.4504C79.18 51.3897 79.1847 51.3241 79.2122 51.2668L80.0327 49.5365C80.059 49.4786 80.1065 49.4329 80.1656 49.4089C80.2246 49.3849 80.2906 49.3845 80.3499 49.4077L90.5768 53.4832C90.6088 53.4954 90.6378 53.5141 90.6622 53.5381C90.6867 53.562 90.7059 53.5907 90.7187 53.6223C90.7316 53.654 90.7378 53.688 90.737 53.7221C90.7362 53.7563 90.7283 53.7899 90.7139 53.8209Z" fill="black"/>
<path d="M12.4318 11.6914L15.6556 11.4872C15.7188 11.4833 15.7811 11.5032 15.8304 11.5429C15.8797 11.5826 15.9122 11.6394 15.9217 11.7019L17.4522 21.8836L17.7881 11.5812C17.7902 11.5192 17.815 11.4601 17.8579 11.4152C17.9007 11.3702 17.9586 11.3426 18.0205 11.3375L21.2455 11.1333C21.2821 11.1311 21.3187 11.1368 21.3528 11.1501C21.387 11.1635 21.4178 11.184 21.4432 11.2104C21.4686 11.2367 21.488 11.2683 21.5 11.3029C21.512 11.3374 21.5164 11.3742 21.5128 11.4106L20.002 26.7284C19.9974 26.7885 19.9715 26.8449 19.9289 26.8875C19.8862 26.93 19.8297 26.956 19.7696 26.9605L15.8473 27.2088C15.7874 27.2125 15.728 27.1949 15.6799 27.1589C15.6318 27.123 15.5981 27.0712 15.5847 27.0127L12.2017 11.999C12.1935 11.9634 12.1932 11.9264 12.2008 11.8907C12.2083 11.855 12.2236 11.8213 12.2455 11.792C12.2674 11.7628 12.2954 11.7386 12.3275 11.7213C12.3597 11.7039 12.3953 11.6937 12.4318 11.6914Z" fill="black"/>
<path d="M22.2215 20.0069C22.3377 17.1569 23.1164 16.0289 25.5755 15.2932L27.9265 14.597V14.554L27.9916 12.9898C28.0276 12.1113 27.722 11.7133 27.206 11.6912C26.7341 11.6715 26.4413 12.0034 26.4134 12.6672L26.3855 13.3634C26.3842 13.3965 26.3763 13.429 26.3624 13.459C26.3484 13.4891 26.3287 13.5161 26.3043 13.5385C26.2799 13.5609 26.2513 13.5783 26.2202 13.5897C26.1891 13.6011 26.156 13.6062 26.1229 13.6048L22.9781 13.476C22.945 13.4746 22.9124 13.4668 22.8823 13.4529C22.8523 13.439 22.8252 13.4193 22.8028 13.3949C22.7803 13.3705 22.7629 13.342 22.7515 13.3109C22.7401 13.2798 22.735 13.2468 22.7364 13.2137L22.7468 12.9503C22.8747 9.8438 24.318 8.72282 27.5384 8.85395C30.0486 8.95723 31.8825 10.3846 31.7779 12.9352L31.2956 24.6417C31.2942 24.6748 31.2864 24.7073 31.2724 24.7373C31.2585 24.7674 31.2388 24.7944 31.2144 24.8168C31.19 24.8392 31.1614 24.8566 31.1303 24.868C31.0991 24.8794 31.0661 24.8845 31.0329 24.8831L27.8033 24.7508C27.7363 24.7481 27.6731 24.719 27.6276 24.6698C27.5821 24.6206 27.5579 24.5555 27.5604 24.4886L27.6267 22.8755C27.2095 24.1683 26.2983 24.861 25.2036 24.8158C22.5864 24.7009 22.1111 22.6852 22.2215 20.0069ZM26.8062 21.9553C27.428 21.9808 27.6197 21.3658 27.6499 20.7659L27.8301 16.3945C26.7841 16.7589 26.16 17.2915 26.1089 18.5134L26.0264 20.5268C25.9881 21.4702 26.2484 21.9321 26.8062 21.9553Z" fill="black"/>
<path d="M36.5405 9.8027L33.2872 9.91331C33.148 9.91804 33.039 10.0346 33.0437 10.1735L33.5616 25.3619C33.5664 25.5009 33.683 25.6097 33.8222 25.605L37.0755 25.4944C37.2147 25.4896 37.3237 25.3731 37.319 25.2341L36.8011 10.0458C36.7964 9.90681 36.6797 9.79797 36.5405 9.8027Z" fill="black"/>
<path d="M39.6118 7.42235L42.8182 7.58017C42.8852 7.58347 42.9481 7.61318 42.9932 7.66279C43.0383 7.71239 43.0619 7.77783 43.0587 7.84475L42.6694 15.7125L44.6392 10.6565C44.6682 10.5826 44.7196 10.5196 44.7864 10.4765C44.8531 10.4334 44.9317 10.4123 45.0111 10.4163L48.3116 10.5787C48.3468 10.5804 48.3811 10.5905 48.4116 10.6082C48.4422 10.6258 48.468 10.6505 48.487 10.6801C48.506 10.7098 48.5176 10.7436 48.5209 10.7786C48.5241 10.8137 48.5189 10.849 48.5057 10.8816L45.9246 17.2907L48.4093 26.0114C48.4188 26.0458 48.4198 26.0819 48.4123 26.1168C48.4048 26.1516 48.3889 26.1841 48.3661 26.2115C48.3432 26.2389 48.3141 26.2603 48.2811 26.274C48.2482 26.2876 48.2124 26.2931 48.1768 26.2899L44.7706 26.1217C44.6899 26.1181 44.6125 26.0887 44.5498 26.038C44.487 25.9872 44.4422 25.9177 44.4219 25.8397L42.5195 18.602L42.1709 25.741C42.1692 25.7741 42.1611 25.8066 42.1468 25.8365C42.1326 25.8664 42.1127 25.8933 42.088 25.9155C42.0634 25.9377 42.0347 25.9548 42.0034 25.9659C41.9721 25.977 41.939 25.9818 41.9059 25.9801L38.7007 25.8258C38.6675 25.8241 38.6351 25.816 38.6051 25.8018C38.5751 25.7876 38.5482 25.7676 38.526 25.7431C38.5038 25.7185 38.4866 25.6898 38.4755 25.6586C38.4644 25.6273 38.4596 25.5943 38.4613 25.5612L39.3445 7.6614C39.3461 7.62811 39.3544 7.59547 39.3687 7.56538C39.3831 7.53529 39.4033 7.50835 39.4281 7.48611C39.453 7.46388 39.482 7.44679 39.5136 7.43584C39.5451 7.4249 39.5785 7.42031 39.6118 7.42235Z" fill="black"/>
<path d="M48.457 28.2871C48.4603 28.2202 48.4901 28.1573 48.5398 28.1123C48.5894 28.0673 48.655 28.0437 48.722 28.0469L50.2723 28.1212C50.5942 28.1374 50.6848 28.0121 50.693 27.8624C50.7011 27.7622 50.6988 27.6615 50.686 27.5618L48.9904 12.3972C48.9863 12.3609 48.9902 12.3241 49.0018 12.2894C49.0134 12.2547 49.0324 12.223 49.0575 12.1963C49.0826 12.1697 49.1132 12.1489 49.1472 12.1353C49.1811 12.1217 49.2177 12.1156 49.2542 12.1175L52.3095 12.2637C52.3725 12.2669 52.4321 12.2933 52.4766 12.338C52.5211 12.3826 52.5473 12.4422 52.5501 12.5051L53.0335 23.9169L54.8012 12.6096C54.8106 12.548 54.8425 12.4921 54.8908 12.4526C54.9391 12.4132 55.0003 12.393 55.0626 12.396L58.14 12.5446C58.1766 12.5467 58.2124 12.5568 58.2447 12.5741C58.2771 12.5914 58.3053 12.6155 58.3274 12.6447C58.3495 12.674 58.3649 12.7077 58.3727 12.7435C58.3805 12.7793 58.3804 12.8163 58.3724 12.8521L54.728 28.9149C54.4793 30.0846 53.9342 30.6811 52.5815 30.6161L48.6069 30.4246C48.5738 30.4231 48.5414 30.4151 48.5114 30.4011C48.4815 30.387 48.4546 30.3672 48.4323 30.3427C48.4101 30.3182 48.3929 30.2895 48.3818 30.2584C48.3706 30.2273 48.3658 30.1942 48.3675 30.1612L48.457 28.2871Z" fill="black"/>
<path d="M64.8557 12.994C64.8857 12.7864 64.8323 12.5753 64.7071 12.4069C64.582 12.2384 64.3952 12.1262 64.1875 12.0947C63.6715 12.0285 63.3833 12.307 63.3171 12.8025C63.2741 13.0524 63.2949 13.3091 63.3776 13.5488C63.4603 13.7886 63.6021 14.0036 63.79 14.1742L65.8168 16.1086C67.0952 17.312 68.0075 18.7208 67.7018 21.0231C67.3218 23.8859 65.395 25.1925 62.5489 24.8166C59.5366 24.4185 58.242 22.7057 58.6464 19.6572L58.7719 18.7034C58.7809 18.6371 58.8157 18.5771 58.8689 18.5364C58.922 18.4958 58.9891 18.4778 59.0555 18.4864L62.2107 18.9041C62.2436 18.9084 62.2753 18.9191 62.3041 18.9357C62.3328 18.9523 62.358 18.9743 62.3782 19.0006C62.3984 19.0269 62.4132 19.057 62.4218 19.089C62.4303 19.121 62.4324 19.1544 62.428 19.1873L62.2246 20.7214C62.134 21.406 62.3281 21.8528 62.9312 21.9329C63.4716 22.0048 63.7726 21.6427 63.8772 20.8548C64.0504 19.5482 63.4751 18.9447 62.765 18.238L61.0311 16.4892C59.9294 15.3938 59.4041 14.4376 59.6516 12.5507C60.0003 9.93623 62.2583 8.99048 64.6675 9.3096C67.5728 9.6937 68.9 11.3462 68.5095 14.2914L68.5037 14.332C68.4994 14.3648 68.4887 14.3965 68.4721 14.4252C68.4555 14.4539 68.4334 14.4791 68.4071 14.4993C68.3807 14.5194 68.3506 14.5342 68.3186 14.5427C68.2865 14.5513 68.253 14.5534 68.2201 14.549L64.9661 14.1185C64.9332 14.1142 64.9015 14.1034 64.8727 14.0869C64.844 14.0703 64.8188 14.0482 64.7986 14.0219C64.7784 13.9956 64.7636 13.9656 64.7551 13.9336C64.7465 13.9016 64.7444 13.8682 64.7488 13.8353L64.8557 12.994Z" fill="black"/>
<path d="M70.5017 23.7612L70.8027 13.9636L70.0031 13.9393C69.9361 13.9371 69.8727 13.9086 69.8267 13.8599C69.7808 13.8111 69.756 13.7462 69.7579 13.6793L69.83 11.3317C69.831 11.2987 69.8386 11.2661 69.8522 11.236C69.8659 11.2058 69.8854 11.1787 69.9095 11.156C69.9337 11.1334 69.9621 11.1157 69.9931 11.1041C70.0242 11.0924 70.0572 11.087 70.0903 11.0881L70.8898 11.1124L70.9851 8.0419C70.9859 8.00868 70.9932 7.97594 71.0068 7.94558C71.0203 7.91523 71.0398 7.88786 71.064 7.86508C71.0882 7.84229 71.1167 7.82454 71.1479 7.81287C71.179 7.80119 71.2122 7.79581 71.2455 7.79705L74.3902 7.89337C74.4233 7.89442 74.4559 7.90197 74.4861 7.91561C74.5163 7.92924 74.5435 7.94869 74.5662 7.97283C74.5889 7.99697 74.6065 8.02533 74.6182 8.0563C74.6299 8.08727 74.6354 8.12023 74.6343 8.15331L74.5401 11.2238L75.3606 11.2494C75.4276 11.2515 75.491 11.28 75.537 11.3287C75.583 11.3775 75.6077 11.4424 75.6058 11.5093L75.5338 13.8557C75.5317 13.9226 75.5031 13.9859 75.4543 14.0318C75.4055 14.0777 75.3405 14.1024 75.2735 14.1006L74.453 14.075L74.1787 22.9942C74.1624 23.5082 74.2868 23.6835 74.7807 23.6986C74.8423 23.6986 74.9039 23.6986 74.9655 23.6986C74.9997 23.6978 75.0337 23.7039 75.0654 23.7166C75.0972 23.7294 75.126 23.7484 75.1501 23.7726C75.1743 23.7968 75.1932 23.8257 75.2058 23.8575C75.2184 23.8892 75.2244 23.9232 75.2235 23.9573L75.1596 26.038C75.1578 26.0956 75.1364 26.1509 75.0987 26.1947C75.0611 26.2384 75.0095 26.2679 74.9527 26.2782C74.3153 26.3987 73.6676 26.457 73.0189 26.4523C70.9793 26.3943 70.4482 25.5193 70.5017 23.7612Z" fill="black"/>
<path d="M85.8615 19.9801C85.927 19.9777 85.9889 19.9499 86.0343 19.9027C86.0796 19.8555 86.1047 19.7925 86.1044 19.7271C86.1044 19.1887 86.0835 18.3996 86.0335 17.1834L85.987 16.0474C85.8638 13.0685 84.3031 11.6725 81.2768 11.7967C78.3354 11.9127 76.6166 13.5106 76.7363 16.4257L76.999 22.7268C77.1361 26.0689 78.375 27.972 81.744 27.8328C85.3072 27.6877 86.3926 25.8183 86.2473 22.3033L86.2206 21.6558C86.2193 21.6227 86.2114 21.5902 86.1975 21.5602C86.1835 21.5301 86.1638 21.5031 86.1394 21.4807C86.115 21.4583 86.0864 21.4409 86.0553 21.4295C86.0242 21.4181 85.9911 21.413 85.958 21.4144L82.7284 21.5455C82.6614 21.5485 82.5983 21.578 82.553 21.6273C82.5077 21.6767 82.4838 21.742 82.4866 21.8089L82.5389 23.0785C82.5819 24.1495 82.5064 24.905 81.7336 24.9352C80.9201 24.9688 80.8155 24.0706 80.7818 23.2351L80.6563 20.1913L85.8615 19.9801ZM80.5551 18.3299L80.468 16.2087C80.4215 15.0482 80.7469 14.6084 81.3477 14.584C81.9056 14.5608 82.2042 15.0204 82.2496 16.1355L82.3367 18.2568L80.5551 18.3299Z" fill="black"/>
<path d="M87.375 21.3525V20.3986C87.3753 20.3317 87.4021 20.2676 87.4496 20.2204C87.4971 20.1733 87.5614 20.1468 87.6284 20.1468H90.7871C90.8541 20.1471 90.9182 20.1739 90.9655 20.2213C91.0127 20.2687 91.0393 20.3328 91.0392 20.3997V21.9362C91.0392 22.622 91.288 23.0374 91.8923 23.0386C92.4327 23.0386 92.6825 22.644 92.6837 21.8538C92.6837 20.5448 92.041 20.0249 91.2508 19.4168L89.3193 17.9245C88.0909 16.988 87.4471 16.1142 87.4494 14.2227C87.4494 11.6024 89.5575 10.3793 91.9713 10.3828C94.8871 10.3828 96.4037 11.8427 96.4002 14.7925V14.8308C96.4004 14.8639 96.394 14.8967 96.3813 14.9273C96.3687 14.958 96.3502 14.9858 96.3267 15.0092C96.3033 15.0326 96.2754 15.0511 96.2447 15.0637C96.2141 15.0763 96.1812 15.0828 96.148 15.0826H92.8847C92.8177 15.0823 92.7536 15.0555 92.7063 15.0081C92.6591 14.9607 92.6326 14.8965 92.6326 14.8296V13.986C92.635 13.7777 92.555 13.5769 92.4097 13.4273C92.2645 13.2777 92.066 13.1916 91.8574 13.1876C91.3414 13.1876 91.0927 13.4998 91.0915 13.9999C91.0816 14.2517 91.1354 14.5019 91.2479 14.7275C91.3605 14.953 91.5281 15.1466 91.7354 15.2903L93.9818 16.9347C95.3961 17.9558 96.4781 19.2242 96.4746 21.5323C96.4746 24.4009 94.7418 25.942 91.8899 25.9339C88.8684 25.9281 87.3715 24.4079 87.375 21.3525Z" fill="black"/>
<path d="M30.5958 27.5499L33.9126 27.4454C33.9796 27.4435 34.0446 27.4683 34.0934 27.5141C34.1422 27.56 34.1707 27.6234 34.1729 27.6903L34.7354 45.6016C34.7364 45.6347 34.731 45.6677 34.7193 45.6987C34.7076 45.7296 34.6899 45.758 34.6673 45.7821C34.6446 45.8063 34.6174 45.8257 34.5872 45.8393C34.557 45.853 34.5244 45.8605 34.4913 45.8616L31.1745 45.9649C31.1414 45.966 31.1084 45.9605 31.0774 45.9488C31.0464 45.9372 31.018 45.9195 30.9938 45.8969C30.9696 45.8743 30.9501 45.8471 30.9365 45.8169C30.9228 45.7868 30.9153 45.7542 30.9142 45.7212L30.3517 27.8098C30.3505 27.7767 30.3558 27.7436 30.3675 27.7126C30.3791 27.6816 30.3968 27.6532 30.4195 27.629C30.4422 27.6048 30.4694 27.5854 30.4997 27.5718C30.53 27.5582 30.5626 27.5507 30.5958 27.5499Z" fill="black"/>
<path d="M35.9293 42.4738L36.2327 36.1749C36.3756 33.2181 38.2269 31.3974 41.1671 31.5389C44.1074 31.6805 45.7739 33.6707 45.6309 36.6275L45.3265 42.9263C45.1719 46.1187 43.5472 47.7155 40.3932 47.5681C37.26 47.408 35.7713 45.73 35.9293 42.4738ZM40.5326 44.6716C41.1544 44.7018 41.4368 44.2202 41.4705 43.5112L41.8412 35.8419C41.8842 34.9425 41.6088 34.4563 41.0277 34.4284C40.4466 34.4006 40.1247 34.8578 40.0805 35.7571L39.711 43.4265C39.6761 44.1355 39.9109 44.6415 40.5326 44.6716Z" fill="black"/>
<path d="M50.9993 48.1422L51.0435 49.5197C51.0447 49.5528 51.0394 49.5858 51.0278 49.6168C51.0161 49.6479 50.9985 49.6763 50.9758 49.7005C50.9531 49.7246 50.9258 49.7441 50.8955 49.7577C50.8653 49.7713 50.8326 49.7787 50.7994 49.7796L47.5815 49.884C47.5483 49.8851 47.5153 49.8797 47.4843 49.868C47.4533 49.8564 47.4249 49.8387 47.4007 49.8161C47.3765 49.7934 47.3571 49.7663 47.3434 49.7361C47.3298 49.706 47.3222 49.6734 47.3211 49.6404L46.754 32.2082C46.7521 32.1413 46.7769 32.0764 46.8228 32.0277C46.8688 31.979 46.9322 31.9504 46.9992 31.9483L50.2172 31.8439C50.284 31.842 50.3489 31.8665 50.3976 31.9122C50.4464 31.9578 50.4751 32.0209 50.4775 32.0875L50.6077 36.1178C51.011 34.9759 51.721 34.2843 53.1853 34.2367C55.1935 34.1717 55.9745 35.7348 56.0535 38.0951L56.2976 45.6136C56.3743 47.9728 55.4922 49.8005 53.4212 49.8666C52.2289 49.9015 51.477 49.3398 50.9993 48.1422ZM51.8012 47.0711C52.5764 47.0468 52.6147 46.188 52.574 45.0601L52.38 39.0873C52.3428 37.9594 52.2533 37.1041 51.5002 37.1285C50.7053 37.1552 50.6704 38.0348 50.7065 39.1419L50.9005 45.1146C50.9366 46.2217 51.0284 47.0967 51.8012 47.0711Z" fill="black"/>
<path d="M57.9431 30.4248L57.4995 45.6155C57.4955 45.7545 57.605 45.8705 57.7443 45.8745L60.9981 45.9693C61.1373 45.9733 61.2534 45.8639 61.2575 45.7249L61.701 30.5342C61.7051 30.3952 61.5955 30.2792 61.4563 30.2752L58.2025 30.1804C58.0633 30.1764 57.9471 30.2858 57.9431 30.4248Z" fill="black"/>
<path d="M62.8072 43.0161C62.7247 40.1649 63.422 38.9859 65.8288 38.0807L68.1252 37.2197V37.1768L68.0799 35.6125C68.0543 34.7329 67.7207 34.3569 67.2059 34.372C66.7341 34.3848 66.4645 34.7364 66.4831 35.4001L66.504 36.0964C66.5059 36.1633 66.4811 36.2282 66.4352 36.2769C66.3892 36.3257 66.3258 36.3542 66.2588 36.3563L63.1128 36.4469C63.0457 36.4484 62.9807 36.4234 62.932 36.3774C62.8832 36.3313 62.8547 36.2678 62.8525 36.2008L62.8455 35.9386C62.7561 32.8298 64.1239 31.6113 67.3384 31.5185C69.851 31.4465 71.779 32.7427 71.8522 35.2934L72.1892 47.0057C72.1903 47.0388 72.1848 47.0718 72.173 47.1028C72.1613 47.1337 72.1435 47.1621 72.1207 47.1862C72.0979 47.2102 72.0705 47.2295 72.0402 47.243C72.0099 47.2564 71.9772 47.2637 71.944 47.2645L68.7132 47.3573C68.6462 47.3592 68.5812 47.3345 68.5324 47.2886C68.4836 47.2427 68.455 47.1793 68.4529 47.1125L68.4064 45.4994C68.0787 46.8177 67.2199 47.572 66.1251 47.6033C63.4998 47.6741 62.8839 45.6956 62.8072 43.0161ZM67.5174 44.6407C68.1391 44.6221 68.2937 43.9955 68.2763 43.3956L68.1507 39.0219C67.1315 39.4594 66.547 40.0338 66.5818 41.2557L66.64 43.2702C66.6667 44.2148 66.9584 44.657 67.5174 44.6407Z" fill="black"/>
<path d="M73.7768 34.357L72.9166 49.5298C72.9087 49.6687 73.0151 49.7876 73.1541 49.7955L76.4041 49.9792C76.5431 49.987 76.6623 49.8809 76.6701 49.742L77.5303 34.5692C77.5382 34.4303 77.4318 34.3114 77.2928 34.3035L74.0428 34.1198C73.9038 34.112 73.7847 34.2182 73.7768 34.357Z" fill="black"/>
<path d="M34.8889 8.71253C36.0558 8.67287 36.9748 7.85301 36.9417 6.88134C36.9085 5.90967 35.9358 5.15413 34.769 5.1938C33.6021 5.23347 32.6831 6.05332 32.7162 7.02499C32.7494 7.99666 33.7221 8.7522 34.8889 8.71253Z" fill="black"/>
<path d="M81.2528 9.50939C82.4193 9.46158 83.3326 8.63534 83.2927 7.66393C83.2528 6.69251 82.2748 5.94377 81.1083 5.99157C79.9417 6.03937 79.0285 6.86561 79.0684 7.83703C79.1083 8.80845 80.0863 9.55719 81.2528 9.50939Z" fill="black"/>
<path d="M78.0161 29.7232C78.0711 28.7525 77.1708 27.9122 76.0052 27.8463C74.8395 27.7805 73.85 28.5139 73.795 29.4846C73.7399 30.4553 74.6402 31.2956 75.8059 31.3615C76.9715 31.4274 77.9611 30.6939 78.0161 29.7232Z" fill="black"/>
<path d="M62.0001 27.2618C62.0285 26.29 61.1055 25.4746 59.9385 25.4407C58.7715 25.4067 57.8024 26.167 57.774 27.1388C57.7457 28.1106 58.6687 28.926 59.8357 28.96C61.0027 28.9939 61.9718 28.2336 62.0001 27.2618Z" fill="black"/>
</svg>
