<svg id="Layer_1" data-name="Layer 1" xmlns="http://www.w3.org/2000/svg" viewBox="0 0 1080 1080"><defs><style>.cls-1{fill:#9d3020;}.cls-2{fill:#96dcff;}.cls-3{fill:#8acaeb;}</style></defs><path class="cls-1" d="M884.86,955.2,249.42,901c107.39-237.42-101.15-475.08,6.29-713l622.85-53.13C759.52,408.09,1004,681.52,884.86,955.2Z"/><path class="cls-2" d="M843.7,931.52,234,877.32c103-237.42-97.06-475.08,6-713l597.62-53.13C723.43,384.41,958,657.84,843.7,931.52Z"/><path class="cls-3" d="M671.84,287.56,343,304.78q.15-13.78,1.12-27.56L672.79,257.8Q671.86,272.68,671.84,287.56Z"/><path class="cls-3" d="M623,327.48l-229.3,10q-.54-9.7-.74-19.42L622.11,307Q622.38,317.23,623,327.48Z"/><path class="cls-3" d="M765.19,464l-491.9,6.05q-1.82-9.39-3.53-18.78L761,442.93Q763,453.48,765.19,464Z"/><path class="cls-3" d="M712.81,510.37l-431.27.91q-1.92-9.39-3.82-18.78l430.62-2.9Q710.54,500,712.81,510.37Z"/><path class="cls-3" d="M768.55,556.36,290,552.51q-1.87-9.39-3.81-18.78L764,535.37Q766.31,545.87,768.55,556.36Z"/><path class="cls-3" d="M767.39,602.25l-469.53-8.52q-1.68-9.39-3.49-18.77l468.87,6.35Q765.37,591.78,767.39,602.25Z"/><path class="cls-3" d="M753.45,647.61,304.54,635q-1.32-9.39-2.85-18.77L750,626.77Q751.84,637.2,753.45,647.61Z"/><path class="cls-3" d="M808.62,695.26,309.33,676.17q-.82-9.39-1.9-18.77l498.79,16.79Q807.56,684.72,808.62,695.26Z"/><path class="cls-3" d="M755.44,738.81,311.53,717.38q-.15-9.39-.64-18.77L754.49,718Q755.14,728.4,755.44,738.81Z"/><path class="cls-3" d="M725.86,782.82,310.45,758.59q.68-9.39.94-18.77l415.28,22.32Q726.47,772.47,725.86,782.82Z"/><path class="cls-3" d="M806,834.06,305.41,799.79c1.11-6.25,2-12.51,2.83-18.77l500.68,32Q807.74,823.52,806,834.06Z"/><path class="cls-3" d="M545.41,211.83c-3.32,16.89-18.16,31.44-34.72,32.49s-28.46-11.59-25.16-28.21,20.65-31.17,37.19-32.49S548.7,194.93,545.41,211.83Z"/></svg>