<svg id="Layer_1" data-name="Layer 1" xmlns="http://www.w3.org/2000/svg" viewBox="0 0 1080 1080"><defs><style>.cls-1{fill:#9d3020;}.cls-2{fill:#96dcff;}.cls-3{fill:#8acaeb;}.cls-4{fill:#f04b32;}</style></defs><polygon class="cls-1" points="186.48 191.77 185.03 208.97 125.39 915.35 152.37 927.17 546.68 889.73 941.43 934.07 958.36 922.24 931.22 179.35 186.48 191.77"/><path class="cls-2" d="M546.51,863.18l11.58-692s-39.55-28-112.85-28c-108,0-163,76.19-234.38,76.19l-54,677.09S354.09,766.24,546.51,863.18Z"/><path class="cls-3" d="M546.51,863.18l11.58-692s38.58-28,146.6-28c141.79,0,160.56,58.83,205,58.83l18.81,702.17S786.68,785.05,546.51,863.18Z"/><path class="cls-4" d="M399.16,595.48c-15.16-5.64-37.83-27-37.83-27s-33.37.44-46.22-4.35c123.24-115,75.41-297,198.66-412a149.3,149.3,0,0,1,44.32,18.95C434.84,286.13,522.41,480.49,399.16,595.48Z"/><path class="cls-3" d="M546.51,863.18C388,783.3,226.13,857.65,174.08,886.3l-.83,10.15s9.18-3.21,25.13-7.94l-.78,9.87s264.52-51.6,348.91-35.2h0Z"/><path class="cls-2" d="M546.51,863.18s191-16.64,363.14,44.84l-1.18-17.7C861.56,861.42,734,802.18,546.51,863.18Z"/></svg>